<svg xmlns="http://www.w3.org/2000/svg" viewBox="0 0 24 24.0002">
  <defs>
    <style>
      .a, .b {
        fill: none;
        stroke: #fff;
        stroke-linejoin: round;
      }

      .b {
        stroke-linecap: round;
      }
    </style>
  </defs>
  <title>partners</title>
  <path class="a" d="M18.5,6.9756a6.5203,6.5203,0,0,1-6.518,6.524A6.592,6.592,0,0,1,5.5,6.8586,6.35723,6.35723,0,0,1,11.721.5056q.1395-.006.282-.006A6.46221,6.46221,0,0,1,18.5,6.9756Z" transform="translate(0 0.0004)"/>
  <path class="a" d="M11.7207.5059c-3.392,3.674-3.392,8.467,0,12.989" transform="translate(0 0.0004)"/>
  <path class="a" d="M12.2852.5059c3.392,3.674,3.392,8.466,0,12.987" transform="translate(0 0.0004)"/>
  <line class="a" x1="6.5742" y1="10.5004" x2="17.4682" y2="10.5004"/>
  <line class="a" x1="6.4531" y1="3.5004" x2="17.4961" y2="3.5004"/>
  <line class="a" x1="5.5" y1="7.0004" x2="18.5" y2="7.0004"/>
  <circle class="b" cx="4.5" cy="17.015" r="2.5"/>
  <circle class="b" cx="12" cy="17.015" r="2.5"/>
  <circle class="b" cx="19.5" cy="17.015" r="2.5"/>
  <path class="b" d="M19.5,19.5068a3.9922,3.9922,0,0,0-3.75,2.654,3.9788,3.9788,0,0,0-7.5.002,3.99536,3.99536,0,0,0-3.75-2.656,4.13411,4.13411,0,0,0-4,3.993h23A4.13411,4.13411,0,0,0,19.5,19.5068Z" transform="translate(0 0.0004)"/>
</svg>
